<mxfile host="app.diagrams.net" agent="Mozilla/5.0 (Windows NT 10.0; Win64; x64) AppleWebKit/537.36 (KHTML, like Gecko) Chrome/122.0.6261.95 Safari/537.36" version="24.8.1">
  <diagram name="第 1 页" id="cgz7mQ0Nxopz5oD3JUpl">
    <mxGraphModel dx="794" dy="446" grid="1" gridSize="10" guides="1" tooltips="1" connect="1" arrows="1" fold="1" page="1" pageScale="1" pageWidth="827" pageHeight="1169" math="0" shadow="0">
      <root>
        <mxCell id="0" />
        <mxCell id="1" parent="0" />
        <mxCell id="H3Humv1J8oDxR7K4Y72v-32" value="第一阶段：&#xa;数据收集与整理" style="whiteSpace=wrap;strokeWidth=2;" vertex="1" parent="1">
          <mxGeometry x="294" y="20" width="173" height="66" as="geometry" />
        </mxCell>
        <mxCell id="H3Humv1J8oDxR7K4Y72v-33" value="数据收集" style="whiteSpace=wrap;strokeWidth=2;" vertex="1" parent="1">
          <mxGeometry x="28" y="145" width="125" height="49" as="geometry" />
        </mxCell>
        <mxCell id="H3Humv1J8oDxR7K4Y72v-34" value="数据筛选" style="whiteSpace=wrap;strokeWidth=2;" vertex="1" parent="1">
          <mxGeometry x="28" y="261" width="125" height="49" as="geometry" />
        </mxCell>
        <mxCell id="H3Humv1J8oDxR7K4Y72v-35" value="数据标注" style="whiteSpace=wrap;strokeWidth=2;" vertex="1" parent="1">
          <mxGeometry x="28" y="378" width="125" height="49" as="geometry" />
        </mxCell>
        <mxCell id="H3Humv1J8oDxR7K4Y72v-36" value="数据预处理" style="whiteSpace=wrap;strokeWidth=2;" vertex="1" parent="1">
          <mxGeometry x="20" y="485" width="141" height="49" as="geometry" />
        </mxCell>
        <mxCell id="H3Humv1J8oDxR7K4Y72v-37" value="第二阶段：&#xa;算法探索与模型初步构建" style="whiteSpace=wrap;strokeWidth=2;" vertex="1" parent="1">
          <mxGeometry x="378" y="136" width="236" height="66" as="geometry" />
        </mxCell>
        <mxCell id="H3Humv1J8oDxR7K4Y72v-38" value="算法探索" style="whiteSpace=wrap;strokeWidth=2;" vertex="1" parent="1">
          <mxGeometry x="231" y="261" width="124" height="49" as="geometry" />
        </mxCell>
        <mxCell id="H3Humv1J8oDxR7K4Y72v-39" value="模型选择" style="whiteSpace=wrap;strokeWidth=2;" vertex="1" parent="1">
          <mxGeometry x="231" y="378" width="125" height="49" as="geometry" />
        </mxCell>
        <mxCell id="H3Humv1J8oDxR7K4Y72v-40" value="第三阶段：&#xa;特征提取与模型优化" style="whiteSpace=wrap;strokeWidth=2;" vertex="1" parent="1">
          <mxGeometry x="501" y="253" width="205" height="66" as="geometry" />
        </mxCell>
        <mxCell id="H3Humv1J8oDxR7K4Y72v-41" value="特征提取" style="whiteSpace=wrap;strokeWidth=2;" vertex="1" parent="1">
          <mxGeometry x="425" y="378" width="125" height="49" as="geometry" />
        </mxCell>
        <mxCell id="H3Humv1J8oDxR7K4Y72v-42" value="模型优化" style="whiteSpace=wrap;strokeWidth=2;" vertex="1" parent="1">
          <mxGeometry x="425" y="485" width="125" height="49" as="geometry" />
        </mxCell>
        <mxCell id="H3Humv1J8oDxR7K4Y72v-43" value="第四阶段：&#xa;模型性能评估与临床验证" style="whiteSpace=wrap;strokeWidth=2;" vertex="1" parent="1">
          <mxGeometry x="600" y="369" width="237" height="66" as="geometry" />
        </mxCell>
        <mxCell id="H3Humv1J8oDxR7K4Y72v-44" value="模型评估" style="whiteSpace=wrap;strokeWidth=2;" vertex="1" parent="1">
          <mxGeometry x="656" y="485" width="125" height="49" as="geometry" />
        </mxCell>
        <mxCell id="H3Humv1J8oDxR7K4Y72v-45" value="临床验证准备" style="whiteSpace=wrap;strokeWidth=2;" vertex="1" parent="1">
          <mxGeometry x="640" y="584" width="157" height="49" as="geometry" />
        </mxCell>
        <mxCell id="H3Humv1J8oDxR7K4Y72v-46" value="临床验证" style="whiteSpace=wrap;strokeWidth=2;" vertex="1" parent="1">
          <mxGeometry x="656" y="682" width="124" height="49" as="geometry" />
        </mxCell>
        <mxCell id="H3Humv1J8oDxR7K4Y72v-47" value="研究总结" style="whiteSpace=wrap;strokeWidth=2;" vertex="1" parent="1">
          <mxGeometry x="656" y="781" width="124" height="49" as="geometry" />
        </mxCell>
        <mxCell id="H3Humv1J8oDxR7K4Y72v-48" value="" style="curved=1;startArrow=none;endArrow=block;exitX=0;exitY=0.76;entryX=0.5;entryY=0;rounded=0;" edge="1" parent="1" source="H3Humv1J8oDxR7K4Y72v-32" target="H3Humv1J8oDxR7K4Y72v-33">
          <mxGeometry relative="1" as="geometry">
            <Array as="points">
              <mxPoint x="90" y="111" />
            </Array>
          </mxGeometry>
        </mxCell>
        <mxCell id="H3Humv1J8oDxR7K4Y72v-49" value="" style="curved=1;startArrow=none;endArrow=block;exitX=0.5;exitY=0.99;entryX=0.5;entryY=0.01;rounded=0;" edge="1" parent="1" source="H3Humv1J8oDxR7K4Y72v-33" target="H3Humv1J8oDxR7K4Y72v-34">
          <mxGeometry relative="1" as="geometry">
            <Array as="points" />
          </mxGeometry>
        </mxCell>
        <mxCell id="H3Humv1J8oDxR7K4Y72v-50" value="" style="curved=1;startArrow=none;endArrow=block;exitX=0.5;exitY=1;entryX=0.5;entryY=-0.01;rounded=0;" edge="1" parent="1" source="H3Humv1J8oDxR7K4Y72v-34" target="H3Humv1J8oDxR7K4Y72v-35">
          <mxGeometry relative="1" as="geometry">
            <Array as="points" />
          </mxGeometry>
        </mxCell>
        <mxCell id="H3Humv1J8oDxR7K4Y72v-51" value="" style="curved=1;startArrow=none;endArrow=block;exitX=0.5;exitY=0.99;entryX=0.5;entryY=0;rounded=0;" edge="1" parent="1" source="H3Humv1J8oDxR7K4Y72v-35" target="H3Humv1J8oDxR7K4Y72v-36">
          <mxGeometry relative="1" as="geometry">
            <Array as="points" />
          </mxGeometry>
        </mxCell>
        <mxCell id="H3Humv1J8oDxR7K4Y72v-52" value="" style="curved=1;startArrow=none;endArrow=block;exitX=0.01;exitY=1.01;entryX=0.5;entryY=0.01;rounded=0;" edge="1" parent="1" source="H3Humv1J8oDxR7K4Y72v-37" target="H3Humv1J8oDxR7K4Y72v-38">
          <mxGeometry relative="1" as="geometry">
            <Array as="points">
              <mxPoint x="293" y="228" />
            </Array>
          </mxGeometry>
        </mxCell>
        <mxCell id="H3Humv1J8oDxR7K4Y72v-53" value="" style="curved=1;startArrow=none;endArrow=block;exitX=0.5;exitY=1;entryX=0.5;entryY=-0.01;rounded=0;" edge="1" parent="1" source="H3Humv1J8oDxR7K4Y72v-38" target="H3Humv1J8oDxR7K4Y72v-39">
          <mxGeometry relative="1" as="geometry">
            <Array as="points" />
          </mxGeometry>
        </mxCell>
        <mxCell id="H3Humv1J8oDxR7K4Y72v-54" value="" style="curved=1;startArrow=none;endArrow=block;exitX=0.18;exitY=1;entryX=0.5;entryY=-0.01;rounded=0;" edge="1" parent="1" source="H3Humv1J8oDxR7K4Y72v-40" target="H3Humv1J8oDxR7K4Y72v-41">
          <mxGeometry relative="1" as="geometry">
            <Array as="points">
              <mxPoint x="488" y="344" />
            </Array>
          </mxGeometry>
        </mxCell>
        <mxCell id="H3Humv1J8oDxR7K4Y72v-55" value="" style="curved=1;startArrow=none;endArrow=block;exitX=0.5;exitY=0.99;entryX=0.5;entryY=0;rounded=0;" edge="1" parent="1" source="H3Humv1J8oDxR7K4Y72v-41" target="H3Humv1J8oDxR7K4Y72v-42">
          <mxGeometry relative="1" as="geometry">
            <Array as="points" />
          </mxGeometry>
        </mxCell>
        <mxCell id="H3Humv1J8oDxR7K4Y72v-56" value="" style="curved=1;startArrow=none;endArrow=block;exitX=0.5;exitY=1;entryX=0.5;entryY=0;rounded=0;" edge="1" parent="1" source="H3Humv1J8oDxR7K4Y72v-43" target="H3Humv1J8oDxR7K4Y72v-44">
          <mxGeometry relative="1" as="geometry">
            <Array as="points" />
          </mxGeometry>
        </mxCell>
        <mxCell id="H3Humv1J8oDxR7K4Y72v-57" value="" style="curved=1;startArrow=none;endArrow=block;exitX=0.5;exitY=0.99;entryX=0.5;entryY=-0.01;rounded=0;" edge="1" parent="1" source="H3Humv1J8oDxR7K4Y72v-44" target="H3Humv1J8oDxR7K4Y72v-45">
          <mxGeometry relative="1" as="geometry">
            <Array as="points" />
          </mxGeometry>
        </mxCell>
        <mxCell id="H3Humv1J8oDxR7K4Y72v-58" value="" style="curved=1;startArrow=none;endArrow=block;exitX=0.5;exitY=0.99;entryX=0.5;entryY=0.01;rounded=0;" edge="1" parent="1" source="H3Humv1J8oDxR7K4Y72v-45" target="H3Humv1J8oDxR7K4Y72v-46">
          <mxGeometry relative="1" as="geometry">
            <Array as="points" />
          </mxGeometry>
        </mxCell>
        <mxCell id="H3Humv1J8oDxR7K4Y72v-59" value="" style="curved=1;startArrow=none;endArrow=block;exitX=0.5;exitY=1;entryX=0.5;entryY=0;rounded=0;" edge="1" parent="1" source="H3Humv1J8oDxR7K4Y72v-46" target="H3Humv1J8oDxR7K4Y72v-47">
          <mxGeometry relative="1" as="geometry">
            <Array as="points" />
          </mxGeometry>
        </mxCell>
        <mxCell id="H3Humv1J8oDxR7K4Y72v-60" value="" style="curved=1;startArrow=none;endArrow=block;exitX=0.88;exitY=1;entryX=0.5;entryY=0;rounded=0;" edge="1" parent="1" source="H3Humv1J8oDxR7K4Y72v-32" target="H3Humv1J8oDxR7K4Y72v-37">
          <mxGeometry relative="1" as="geometry">
            <Array as="points">
              <mxPoint x="496" y="111" />
            </Array>
          </mxGeometry>
        </mxCell>
        <mxCell id="H3Humv1J8oDxR7K4Y72v-61" value="" style="curved=1;startArrow=none;endArrow=block;exitX=0.76;exitY=1.01;entryX=0.5;entryY=-0.01;rounded=0;" edge="1" parent="1" source="H3Humv1J8oDxR7K4Y72v-37" target="H3Humv1J8oDxR7K4Y72v-40">
          <mxGeometry relative="1" as="geometry">
            <Array as="points">
              <mxPoint x="603" y="228" />
            </Array>
          </mxGeometry>
        </mxCell>
        <mxCell id="H3Humv1J8oDxR7K4Y72v-62" value="" style="curved=1;startArrow=none;endArrow=block;exitX=0.82;exitY=1;entryX=0.5;entryY=0;rounded=0;" edge="1" parent="1" source="H3Humv1J8oDxR7K4Y72v-40" target="H3Humv1J8oDxR7K4Y72v-43">
          <mxGeometry relative="1" as="geometry">
            <Array as="points">
              <mxPoint x="718" y="344" />
            </Array>
          </mxGeometry>
        </mxCell>
      </root>
    </mxGraphModel>
  </diagram>
</mxfile>
